{
    "asset" : {
        "generator" : "Khronos glTF Blender I/O v1.5.17",
        "version" : "2.0"
    },
    "scene" : 0,
    "scenes" : [
        {
            "name" : "Scene",
            "nodes" : [
                0
            ]
        }
    ],
    "nodes" : [
        {
            "mesh" : 0,
            "name" : "Sphere",
            "rotation" : [
                0.7071068286895752,
                0,
                0,
                0.7071067094802856
            ]
        }
    ],
    "materials" : [
        {
            "doubleSided" : true,
            "name" : "b0b0b0",
            "pbrMetallicRoughness" : {
                "baseColorFactor" : [
                    0.6901960968971252,
                    0.6901960968971252,
                    0.6901960968971252,
                    1
                ],
                "metallicFactor" : 0,
                "roughnessFactor" : 0
            }
        }
    ],
    "meshes" : [
        {
            "name" : "Sphere-mesh",
            "primitives" : [
                {
                    "attributes" : {
                        "POSITION" : 0,
                        "NORMAL" : 1,
                        "TEXCOORD_0" : 2
                    },
                    "indices" : 3,
                    "material" : 0
                }
            ]
        }
    ],
    "accessors" : [
        {
            "bufferView" : 0,
            "componentType" : 5126,
            "count" : 16467,
            "max" : [
                0.49939998984336853,
                0.49939998984336853,
                0.4999777674674988
            ],
            "min" : [
                -0.49939998984336853,
                -0.49939998984336853,
                -0.4999777674674988
            ],
            "type" : "VEC3"
        },
        {
            "bufferView" : 1,
            "componentType" : 5126,
            "count" : 16467,
            "type" : "VEC3"
        },
        {
            "bufferView" : 2,
            "componentType" : 5126,
            "count" : 16467,
            "type" : "VEC2"
        },
        {
            "bufferView" : 3,
            "componentType" : 5123,
            "count" : 96120,
            "type" : "SCALAR"
        }
    ],
    "bufferViews" : [
        {
            "buffer" : 0,
            "byteLength" : 197604,
            "byteOffset" : 0
        },
        {
            "buffer" : 0,
            "byteLength" : 197604,
            "byteOffset" : 197604
        },
        {
            "buffer" : 0,
            "byteLength" : 131736,
            "byteOffset" : 395208
        },
        {
            "buffer" : 0,
            "byteLength" : 192240,
            "byteOffset" : 526944
        }
    ],
    "buffers" : [
        {
            "byteLength" : 719184,
            "uri" : "data:application/octet-stream;base64,"
        }
    ]
}
